<svg width="16" height="49" viewBox="0 0 16 49" fill="none" xmlns="http://www.w3.org/2000/svg">
<path opacity="0.6" d="M9 1C9 0.447715 8.55228 -2.41411e-08 8 0C7.44772 2.41411e-08 7 0.447715 7 1L9 1ZM7.2929 48.7071C7.68342 49.0976 8.31658 49.0976 8.70711 48.7071L15.0711 42.3431C15.4616 41.9526 15.4616 41.3195 15.0711 40.9289C14.6805 40.5384 14.0474 40.5384 13.6569 40.9289L8 46.5858L2.34315 40.9289C1.95262 40.5384 1.31946 40.5384 0.928934 40.9289C0.53841 41.3195 0.53841 41.9526 0.928934 42.3431L7.2929 48.7071ZM7 1L7 48L9 48L9 1L7 1Z" fill="white"/>
</svg>
