<svg width="166" height="166" viewBox="0 0 166 166" fill="none" xmlns="http://www.w3.org/2000/svg">
<g opacity="0.2">
<mask id="mask0" mask-type="alpha" maskUnits="userSpaceOnUse" x="0" y="0" width="166" height="166">
<circle cx="83" cy="83" r="83" fill="#3FB7FF"/>
</mask>
<g mask="url(#mask0)">
<rect x="-76.4785" y="24.7119" width="251.114" height="2.96429" transform="rotate(-22.1478 -76.4785 24.7119)" fill="#3FB7FF"/>
<rect x="-47.0254" y="92.6013" width="251.114" height="2.96429" transform="rotate(-22.1478 -47.0254 92.6013)" fill="#3FB7FF"/>
<rect x="-17.5742" y="160.49" width="251.114" height="2.96429" transform="rotate(-22.1478 -17.5742 160.49)" fill="#3FB7FF"/>
<rect x="-72.7969" y="33.198" width="251.114" height="2.96429" transform="rotate(-22.1478 -72.7969 33.198)" fill="#3FB7FF"/>
<rect x="-43.3438" y="101.087" width="251.114" height="2.96429" transform="rotate(-22.1478 -43.3438 101.087)" fill="#3FB7FF"/>
<rect x="-13.8926" y="168.976" width="251.114" height="2.96429" transform="rotate(-22.1478 -13.8926 168.976)" fill="#3FB7FF"/>
<rect x="-69.1152" y="41.6842" width="251.114" height="2.96429" transform="rotate(-22.1478 -69.1152 41.6842)" fill="#3FB7FF"/>
<rect x="-39.6621" y="109.573" width="251.114" height="2.96429" transform="rotate(-22.1478 -39.6621 109.573)" fill="#3FB7FF"/>
<rect x="-10.2109" y="177.462" width="251.114" height="2.96429" transform="rotate(-22.1478 -10.2109 177.462)" fill="#3FB7FF"/>
<rect x="-65.4336" y="50.171" width="251.114" height="2.96429" transform="rotate(-22.1478 -65.4336 50.171)" fill="#3FB7FF"/>
<rect x="-35.9824" y="118.06" width="251.114" height="2.96429" transform="rotate(-22.1478 -35.9824 118.06)" fill="#3FB7FF"/>
<rect x="-6.5293" y="185.949" width="251.114" height="2.96429" transform="rotate(-22.1478 -6.5293 185.949)" fill="#3FB7FF"/>
<path d="M-61.752 58.656L170.833 -36.0131L171.951 -33.2676L-60.6344 61.4016L-61.752 58.656Z" fill="#3FB7FF"/>
<rect x="-32.2988" y="126.546" width="251.114" height="2.96429" transform="rotate(-22.1478 -32.2988 126.546)" fill="#3FB7FF"/>
<rect x="-2.84766" y="194.435" width="251.114" height="2.96429" transform="rotate(-22.1478 -2.84766 194.435)" fill="#3FB7FF"/>
<rect x="-58.0703" y="67.1421" width="251.114" height="2.96429" transform="rotate(-22.1478 -58.0703 67.1421)" fill="#3FB7FF"/>
<rect x="-28.6172" y="135.031" width="251.114" height="2.96429" transform="rotate(-22.1478 -28.6172 135.031)" fill="#3FB7FF"/>
<rect x="0.833984" y="202.92" width="251.114" height="2.96429" transform="rotate(-22.1478 0.833984 202.92)" fill="#3FB7FF"/>
<rect x="-54.3887" y="75.6289" width="251.114" height="2.96429" transform="rotate(-22.1478 -54.3887 75.6289)" fill="#3FB7FF"/>
<rect x="-24.9375" y="143.518" width="251.114" height="2.96429" transform="rotate(-22.1478 -24.9375 143.518)" fill="#3FB7FF"/>
<rect x="4.51562" y="211.407" width="251.114" height="2.96429" transform="rotate(-22.1478 4.51562 211.407)" fill="#3FB7FF"/>
<rect x="-50.2734" y="82.3381" width="251.114" height="2.96429" transform="rotate(-22.1478 -50.2734 82.3381)" fill="#3FB7FF"/>
<rect x="-21.2539" y="152.004" width="251.114" height="2.96429" transform="rotate(-22.1478 -21.2539 152.004)" fill="#3FB7FF"/>
<rect x="-79" y="58.6692" width="251.114" height="2.96429" transform="rotate(-22.1478 -79 58.6692)" fill="#3FB7FF"/>
</g>
</g>
</svg>
