<svg width="88" height="88" viewBox="0 0 88 88" fill="none" xmlns="http://www.w3.org/2000/svg">
<path d="M45.7149 41.065C44.9381 42.3596 43.0618 42.3596 42.285 41.065L35.0219 28.9608C34.2731 27.7128 35.1721 26.125 36.6275 26.125C37.6616 26.125 38.4999 25.2867 38.4999 24.2526V14.375C38.4999 13.2704 39.3954 12.375 40.4999 12.375H47.4999C48.6045 12.375 49.4999 13.2704 49.4999 14.375V24.2526C49.4999 25.2867 50.3383 26.125 51.3724 26.125C52.8278 26.125 53.7268 27.7128 52.9779 28.9608L45.7149 41.065Z" fill="#FF7E06"/>
<path d="M39.875 74.25C39.875 73.4906 40.4906 72.875 41.25 72.875C42.0094 72.875 42.625 73.4906 42.625 74.25C42.625 75.0094 42.0094 75.625 41.25 75.625C40.4906 75.625 39.875 75.0094 39.875 74.25Z" fill="#FF7E06"/>
<path d="M45.375 74.25C45.375 73.4906 45.9906 72.875 46.75 72.875C47.5094 72.875 48.125 73.4906 48.125 74.25C48.125 75.0094 47.5094 75.625 46.75 75.625C45.9906 75.625 45.375 75.0094 45.375 74.25Z" fill="#FF7E06"/>
<path d="M34.375 74.25C34.375 73.4906 34.9906 72.875 35.75 72.875C36.5094 72.875 37.125 73.4906 37.125 74.25C37.125 75.0094 36.5094 75.625 35.75 75.625C34.9906 75.625 34.375 75.0094 34.375 74.25Z" fill="#FF7E06"/>
<path d="M50.875 74.25C50.875 73.4906 51.4906 72.875 52.25 72.875C53.0094 72.875 53.625 73.4906 53.625 74.25C53.625 75.0094 53.0094 75.625 52.25 75.625C51.4906 75.625 50.875 75.0094 50.875 74.25Z" fill="#FF7E06"/>
<path d="M79.75 34.375C78.9906 34.375 78.375 33.7594 78.375 33V22.625C78.375 21.5204 77.4796 20.625 76.375 20.625H69.375C68.2704 20.625 67.375 19.7296 67.375 18.625V3.375C67.375 2.27043 66.4796 1.375 65.375 1.375H22.625C21.5204 1.375 20.625 2.27043 20.625 3.375V18.625C20.625 19.7296 19.7296 20.625 18.625 20.625H11.625C10.5204 20.625 9.625 21.5204 9.625 22.625V33C9.625 33.7594 9.00939 34.375 8.25 34.375C4.45913 34.375 1.375 37.4591 1.375 41.25V79.75C1.375 83.5409 4.45913 86.625 8.25 86.625H79.75C83.5409 86.625 86.625 83.5409 86.625 79.75V41.25C86.625 37.4591 83.5409 34.375 79.75 34.375ZM79.75 37.125C82.0243 37.125 83.875 38.9757 83.875 41.25V65.375C83.875 66.4796 82.9796 67.375 81.875 67.375H80.375C79.2704 67.375 78.375 66.4796 78.375 65.375V38.5C78.375 37.7406 78.9906 37.125 79.75 37.125ZM31.625 72.125C31.625 71.0204 32.5204 70.125 33.625 70.125H54.375C55.4796 70.125 56.375 71.0204 56.375 72.125V77C56.375 77.7576 55.759 78.375 55 78.375H33C32.241 78.375 31.625 77.7576 31.625 77V72.125ZM21.7063 67.375C19.7508 67.375 18.9574 64.8579 20.5594 63.7365L38.4166 51.2365C38.7528 51.0012 39.1532 50.875 39.5636 50.875H48.4364C48.8468 50.875 49.2472 51.0012 49.5834 51.2365L67.4407 63.7365C69.0426 64.8579 68.2492 67.375 66.2937 67.375H21.7063ZM34.6831 47.6274C35.5625 48.5067 35.4346 49.9669 34.4158 50.68L15.5219 63.9058C14.1964 64.8337 12.375 63.8854 12.375 62.2673V30.1477C12.375 28.3659 14.5293 27.4735 15.7892 28.7335L34.6831 47.6274ZM72.2108 28.7335C73.4707 27.4735 75.625 28.3659 75.625 30.1477V62.2673C75.625 63.8854 73.8036 64.8337 72.4781 63.9058L53.5842 50.68C52.5654 49.9669 52.4375 48.5067 53.3169 47.6274L72.2108 28.7335ZM69.2219 23.375C70.8673 23.375 71.6914 25.3644 70.5279 26.5279C69.3644 27.6914 67.375 26.8673 67.375 25.2219C67.375 24.2019 68.2019 23.375 69.2219 23.375ZM62.625 4.125C63.7296 4.125 64.625 5.02043 64.625 6.125V31.6023C64.625 32.1328 64.4143 32.6415 64.0392 33.0165L49.5165 47.5392C49.1415 47.9143 48.6328 48.125 48.1023 48.125H39.8977C39.3672 48.125 38.8585 47.9143 38.4835 47.5392L23.9608 33.0165C23.5857 32.6415 23.375 32.1328 23.375 31.6023V6.125C23.375 5.02043 24.2704 4.125 25.375 4.125H62.625ZM20.625 25.2219C20.625 26.8673 18.6356 27.6914 17.4721 26.5279C16.3086 25.3644 17.1327 23.375 18.7781 23.375C19.7981 23.375 20.625 24.2019 20.625 25.2219ZM8.25 37.125C9.00939 37.125 9.625 37.7406 9.625 38.5V65.375C9.625 66.4796 8.72957 67.375 7.625 67.375H6.125C5.02043 67.375 4.125 66.4796 4.125 65.375V41.25C4.125 38.9757 5.97575 37.125 8.25 37.125ZM79.75 83.875H8.25C5.97575 83.875 4.125 82.0243 4.125 79.75V72.125C4.125 71.0204 5.02043 70.125 6.125 70.125H26.875C27.9796 70.125 28.875 71.0204 28.875 72.125V77C28.875 79.2743 30.7257 81.125 33 81.125H55C57.2743 81.125 59.125 79.2743 59.125 77V72.125C59.125 71.0204 60.0204 70.125 61.125 70.125H81.875C82.9796 70.125 83.875 71.0204 83.875 72.125V79.75C83.875 82.0243 82.0243 83.875 79.75 83.875Z" fill="white"/>
<path d="M15.125 57.75C15.125 56.9906 15.7406 56.375 16.5 56.375C17.2594 56.375 17.875 56.9906 17.875 57.75C17.875 58.5094 17.2594 59.125 16.5 59.125C15.7406 59.125 15.125 58.5094 15.125 57.75Z" fill="#FF7E06"/>
<path d="M15.125 52.25C15.125 51.4906 15.7406 50.875 16.5 50.875C17.2594 50.875 17.875 51.4906 17.875 52.25C17.875 53.0094 17.2594 53.625 16.5 53.625C15.7406 53.625 15.125 53.0094 15.125 52.25Z" fill="#FF7E06"/>
<path d="M15.125 46.75C15.125 45.9906 15.7406 45.375 16.5 45.375C17.2594 45.375 17.875 45.9906 17.875 46.75C17.875 47.5094 17.2594 48.125 16.5 48.125C15.7406 48.125 15.125 47.5094 15.125 46.75Z" fill="#FF7E06"/>
<path d="M70.125 46.75C70.125 45.9906 70.7406 45.375 71.5 45.375C72.2594 45.375 72.875 45.9906 72.875 46.75C72.875 47.5094 72.2594 48.125 71.5 48.125C70.7406 48.125 70.125 47.5094 70.125 46.75Z" fill="#FF7E06"/>
<path d="M70.125 35.75C70.125 34.9906 70.7406 34.375 71.5 34.375C72.2594 34.375 72.875 34.9906 72.875 35.75C72.875 36.5094 72.2594 37.125 71.5 37.125C70.7406 37.125 70.125 36.5094 70.125 35.75Z" fill="#FF7E06"/>
<path d="M70.125 41.25C70.125 40.4906 70.7406 39.875 71.5 39.875C72.2594 39.875 72.875 40.4906 72.875 41.25C72.875 42.0094 72.2594 42.625 71.5 42.625C70.7406 42.625 70.125 42.0094 70.125 41.25Z" fill="#FF7E06"/>
</svg>
