<?xml version="1.0" encoding="UTF-8"?>
<!DOCTYPE svg PUBLIC "-//W3C//DTD SVG 1.1//EN" "http://www.w3.org/Graphics/SVG/1.1/DTD/svg11.dtd">
<!-- Creator: CorelDRAW 2018 (64-Bit) -->
<svg xmlns="http://www.w3.org/2000/svg" xml:space="preserve" width="218px" height="101px" version="1.1" style="shape-rendering:geometricPrecision; text-rendering:geometricPrecision; image-rendering:optimizeQuality; fill-rule:evenodd; clip-rule:evenodd"
viewBox="0 0 21882.54 10097.83"
 xmlns:xlink="http://www.w3.org/1999/xlink">
 <defs>
  <style type="text/css">
   <![CDATA[
    .fil1 {fill:#FFDD00;fill-rule:nonzero}
    .fil3 {fill:#E85222;fill-rule:nonzero}
    .fil4 {fill:#22201E;fill-rule:nonzero}
    .fil2 {fill:#448C40;fill-rule:nonzero}
    .fil0 {fill:#0095D3;fill-rule:nonzero}
   ]]>
  </style>
 </defs>
 <g id="Слой_x0020_1">
  <metadata id="CorelCorpID_0Corel-Layer"/>
  <g id="_2824730146912">
   <g>
    <path class="fil0" d="M4409.91 8056.59c-58.96,39.39 -143.73,87.3 -254.3,143.73 -110.58,56.56 -239.58,110.57 -387,162.19 -147.43,51.59 -312.14,94.66 -493.9,128.99 -181.86,34.32 -371.1,51.6 -567.59,51.6 -412.8,0 -777.68,-51.6 -1094.66,-154.81 -316.97,-103.19 -740.22,-262.83 -956.4,-479.13 -216.31,-216.19 -379.64,-495.04 -490.21,-836.67 -110.56,-341.49 -165.85,-750.61 -165.85,-1227.33 0,-476.61 55.29,-885.73 165.85,-1227.35 110.57,-341.51 273.9,-620.34 490.21,-836.66 216.18,-216.19 639.43,-375.93 956.4,-479.14 316.98,-103.2 681.86,-154.8 1094.66,-154.8 206.4,0 400.48,18.43 582.34,55.29 181.75,36.85 346.46,81.08 493.89,132.68 147.43,51.6 273.89,104.47 379.63,158.49 105.62,54.14 187.97,100.78 246.93,140.06l-560.22 1378.45c-98.37,-44.23 -202.71,-82.24 -313.28,-114.26 -110.58,-31.89 -219.99,-58.96 -328.04,-81.08 -108.15,-22.12 -210.08,-38 -305.91,-47.91 -95.83,-9.79 -175.77,-14.74 -239.57,-14.74 -142.6,0 -267.9,11.06 -375.94,33.17 -108.16,22.11 -201.56,70.03 -280.12,143.74 -78.67,73.72 -137.64,183.13 -176.92,328.02 -39.39,145 -58.96,340.35 -58.96,586.04 0,245.78 19.57,439.87 58.96,582.34 39.28,142.59 98.25,251.9 176.92,328.02 78.56,76.26 171.96,125.33 280.12,147.43 108.04,22.11 233.34,33.18 375.94,33.18 63.8,0 143.74,-4.84 239.57,-14.76 95.83,-9.78 197.76,-25.78 305.91,-47.9 108.05,-22.12 217.46,-49.07 328.04,-81.09 110.57,-31.91 214.91,-70.03 313.28,-114.26l560.22 1378.47z"/>
    <g>
     <path class="fil0" d="M4409.91 8056.59c-58.96,39.39 -143.73,87.3 -254.3,143.73 -110.58,56.56 -239.58,110.57 -387,162.19 -147.43,51.59 -312.14,94.66 -493.9,128.99 -181.86,34.32 -371.1,51.6 -567.59,51.6 -412.8,0 -777.68,-51.6 -1094.66,-154.81 -316.97,-103.19 -740.22,-262.83 -956.4,-479.13 -216.31,-216.19 -379.64,-495.04 -490.21,-836.67 -110.56,-341.49 -165.85,-750.61 -165.85,-1227.33 0,-476.61 55.29,-885.73 165.85,-1227.35 110.57,-341.51 273.9,-620.34 490.21,-836.66 216.18,-216.19 639.43,-375.93 956.4,-479.14 316.98,-103.2 681.86,-154.8 1094.66,-154.8 206.4,0 400.48,18.43 582.34,55.29 181.75,36.85 346.46,81.08 493.89,132.68 147.43,51.6 273.89,104.47 379.63,158.49 105.62,54.14 187.97,100.78 246.93,140.06l-560.22 1378.45c-98.37,-44.23 -202.71,-82.24 -313.28,-114.26 -110.58,-31.89 -219.99,-58.96 -328.04,-81.08 -108.15,-22.12 -210.08,-38 -305.91,-47.91 -95.83,-9.79 -175.77,-14.74 -239.57,-14.74 -142.6,0 -267.9,11.06 -375.94,33.17 -108.16,22.11 -201.56,70.03 -280.12,143.74 -78.67,73.72 -137.64,183.13 -176.92,328.02 -39.39,145 -58.96,340.35 -58.96,586.04 0,245.78 19.57,439.87 58.96,582.34 39.28,142.59 98.25,251.9 176.92,328.02 78.56,76.26 171.96,125.33 280.12,147.43 108.04,22.11 233.34,33.18 375.94,33.18 63.8,0 143.74,-4.84 239.57,-14.76 95.83,-9.78 197.76,-25.78 305.91,-47.9 108.05,-22.12 217.46,-49.07 328.04,-81.09 110.57,-31.91 214.91,-70.03 313.28,-114.26l560.22 1378.47z"/>
     <path class="fil1" d="M6132.48 8523.62c-450.34,0 -788.84,-106 -1015.63,-318 -226.8,-212 -340.19,-557.9 -340.19,-1037.82 0,-479.86 113.39,-825.82 340.19,-1037.83 226.79,-211.98 565.29,-317.98 1015.63,-317.98 450.27,0 788.84,106 1015.63,317.98 226.8,212.01 340.18,557.97 340.18,1037.83 0,479.92 -113.38,825.82 -340.18,1037.82 -226.79,212 -565.36,318 -1015.63,318zm419.07 -1355.82l0 0c0,-95.29 -10.71,-170.86 -32.05,-226.79 -21.41,-55.86 -50.99,-97.77 -88.74,-125.73 -37.83,-27.87 -82.2,-45.98 -133.11,-54.24 -51.01,-8.16 -106.01,-12.3 -165.17,-12.3 -59.17,0 -114.24,4.14 -165.17,12.3 -50.99,8.26 -95.37,26.37 -133.11,54.24 -37.82,27.96 -67.41,69.87 -88.74,125.73 -21.43,55.93 -32.05,131.5 -32.05,226.79 0,95.38 10.62,170.94 32.05,226.78 21.33,55.94 50.92,97.84 88.74,125.73 37.74,27.97 82.12,46.07 133.11,54.23 50.93,8.24 106,12.33 165.17,12.33 59.16,0 114.16,-4.09 165.17,-12.33 50.91,-8.16 95.28,-26.26 133.11,-54.23 37.75,-27.89 67.33,-69.79 88.74,-125.73 21.34,-55.84 32.05,-131.4 32.05,-226.78z"/>
     <path class="fil1" d="M6132.48 8523.62c-450.34,0 -788.84,-106 -1015.63,-318 -226.8,-212 -340.19,-557.9 -340.19,-1037.82 0,-479.86 113.39,-825.82 340.19,-1037.83 226.79,-211.98 565.29,-317.98 1015.63,-317.98 450.27,0 788.84,106 1015.63,317.98 226.8,212.01 340.18,557.97 340.18,1037.83 0,479.92 -113.38,825.82 -340.18,1037.82 -226.79,212 -565.36,318 -1015.63,318zm419.07 -1355.82l0 0c0,-95.29 -10.71,-170.86 -32.05,-226.79 -21.41,-55.86 -50.99,-97.77 -88.74,-125.73 -37.83,-27.87 -82.2,-45.98 -133.11,-54.24 -51.01,-8.16 -106.01,-12.3 -165.17,-12.3 -59.17,0 -114.24,4.14 -165.17,12.3 -50.99,8.26 -95.37,26.37 -133.11,54.24 -37.82,27.96 -67.41,69.87 -88.74,125.73 -21.43,55.93 -32.05,131.5 -32.05,226.79 0,95.38 10.62,170.94 32.05,226.78 21.33,55.94 50.92,97.84 88.74,125.73 37.74,27.97 82.12,46.07 133.11,54.23 50.93,8.24 106,12.33 165.17,12.33 59.16,0 114.16,-4.09 165.17,-12.33 50.91,-8.16 95.28,-26.26 133.11,-54.23 37.75,-27.89 67.33,-69.79 88.74,-125.73 21.34,-55.84 32.05,-131.4 32.05,-226.78z"/>
     <path class="fil2" d="M9573.74 8336.28c-128.19,75.64 -240.82,124.94 -337.73,147.9 -96.99,22.96 -206.29,34.51 -327.85,34.51 -164.41,0 -307.38,-18.1 -428.94,-54.24 -121.63,-36.13 -222.71,-99.36 -303.22,-189.8 -80.57,-90.37 -141.35,-213.63 -182.41,-369.78 -41.14,-156.08 -61.63,-354.13 -61.63,-594.09l0 -2341.87 103.54 -44.36c128.19,-55.85 252.21,-95.3 372.24,-118.34 119.93,-22.94 248.97,-34.5 387.02,-34.5l73.95 0 0 2539.07c0,62.47 2.46,111.77 7.4,147.9 4.93,36.21 13.94,63.33 27.11,81.36 13.1,18.1 30.35,29.57 51.77,34.5 21.34,4.94 48.45,7.4 81.35,7.4 42.68,0 76.42,-3.23 101.07,-9.86 24.65,-6.54 59.93,-21.34 106,-44.37l330.33 808.57z"/>
     <path class="fil2" d="M9573.74 8336.28c-128.19,75.64 -240.82,124.94 -337.73,147.9 -96.99,22.96 -206.29,34.51 -327.85,34.51 -164.41,0 -307.38,-18.1 -428.94,-54.24 -121.63,-36.13 -222.71,-99.36 -303.22,-189.8 -80.57,-90.37 -141.35,-213.63 -182.41,-369.78 -41.14,-156.08 -61.63,-354.13 -61.63,-594.09l0 -2341.87 103.54 -44.36c128.19,-55.85 252.21,-95.3 372.24,-118.34 119.93,-22.94 248.97,-34.5 387.02,-34.5l73.95 0 0 2539.07c0,62.47 2.46,111.77 7.4,147.9 4.93,36.21 13.94,63.33 27.11,81.36 13.1,18.1 30.35,29.57 51.77,34.5 21.34,4.94 48.45,7.4 81.35,7.4 42.68,0 76.42,-3.23 101.07,-9.86 24.65,-6.54 59.93,-21.34 106,-44.37l330.33 808.57z"/>
     <path class="fil0" d="M11126.75 8523.62c-450.35,0 -788.84,-106 -1015.63,-318 -226.8,-212 -340.2,-557.9 -340.2,-1037.82 0,-479.86 113.4,-825.82 340.2,-1037.83 226.79,-211.98 565.28,-317.98 1015.63,-317.98 450.26,0 788.83,106 1015.62,317.98 226.8,212.01 340.19,557.97 340.19,1037.83 0,479.92 -113.39,825.82 -340.19,1037.82 -226.79,212 -565.36,318 -1015.62,318zm419.06 -1355.82l0 0c0,-95.29 -10.7,-170.86 -32.05,-226.79 -21.4,-55.86 -50.98,-97.77 -88.73,-125.73 -37.84,-27.87 -82.2,-45.98 -133.12,-54.24 -51,-8.16 -106,-12.3 -165.16,-12.3 -59.17,0 -114.24,4.14 -165.17,12.3 -51,8.26 -95.38,26.37 -133.12,54.24 -37.82,27.96 -67.4,69.87 -88.74,125.73 -21.42,55.93 -32.05,131.5 -32.05,226.79 0,95.38 10.63,170.94 32.05,226.78 21.34,55.94 50.92,97.84 88.74,125.73 37.74,27.97 82.12,46.07 133.12,54.23 50.93,8.24 106,12.33 165.17,12.33 59.16,0 114.16,-4.09 165.16,-12.33 50.92,-8.16 95.28,-26.26 133.12,-54.23 37.75,-27.89 67.33,-69.79 88.73,-125.73 21.35,-55.84 32.05,-131.4 32.05,-226.78z"/>
     <path class="fil0" d="M11126.75 8523.62c-450.35,0 -788.84,-106 -1015.63,-318 -226.8,-212 -340.2,-557.9 -340.2,-1037.82 0,-479.86 113.4,-825.82 340.2,-1037.83 226.79,-211.98 565.28,-317.98 1015.63,-317.98 450.26,0 788.83,106 1015.62,317.98 226.8,212.01 340.19,557.97 340.19,1037.83 0,479.92 -113.39,825.82 -340.19,1037.82 -226.79,212 -565.36,318 -1015.62,318zm419.06 -1355.82l0 0c0,-95.29 -10.7,-170.86 -32.05,-226.79 -21.4,-55.86 -50.98,-97.77 -88.73,-125.73 -37.84,-27.87 -82.2,-45.98 -133.12,-54.24 -51,-8.16 -106,-12.3 -165.16,-12.3 -59.17,0 -114.24,4.14 -165.17,12.3 -51,8.26 -95.38,26.37 -133.12,54.24 -37.82,27.96 -67.4,69.87 -88.74,125.73 -21.42,55.93 -32.05,131.5 -32.05,226.79 0,95.38 10.63,170.94 32.05,226.78 21.34,55.94 50.92,97.84 88.74,125.73 37.74,27.97 82.12,46.07 133.12,54.23 50.93,8.24 106,12.33 165.17,12.33 59.16,0 114.16,-4.09 165.16,-12.33 50.92,-8.16 95.28,-26.26 133.12,-54.23 37.75,-27.89 67.33,-69.79 88.73,-125.73 21.35,-55.84 32.05,-131.4 32.05,-226.78z"/>
     <path class="fil3" d="M12926.24 8469.38l0 -2613.02 468.37 0 340.17 221.84c55.86,-65.7 134.74,-126.47 236.67,-182.4 101.85,-55.86 220.18,-83.81 354.99,-83.81 55.82,0 100.21,4.91 133.09,14.78 32.84,9.86 64.12,19.72 93.67,29.59l-147.89 892.38 -320.46 0c-55.94,0 -99.45,10.7 -130.65,32.04 -31.27,21.4 -53.48,50.14 -66.56,86.26 -13.19,36.21 -20.57,78.9 -22.21,128.2 -1.69,49.3 -2.45,101.91 -2.45,157.77l0 1316.37 -936.74 0z"/>
     <path class="fil3" d="M12926.24 8469.38l0 -2613.02 468.37 0 340.17 221.84c55.86,-65.7 134.74,-126.47 236.67,-182.4 101.85,-55.86 220.18,-83.81 354.99,-83.81 55.82,0 100.21,4.91 133.09,14.78 32.84,9.86 64.12,19.72 93.67,29.59l-147.89 892.38 -320.46 0c-55.94,0 -99.45,10.7 -130.65,32.04 -31.27,21.4 -53.48,50.14 -66.56,86.26 -13.19,36.21 -20.57,78.9 -22.21,128.2 -1.69,49.3 -2.45,101.91 -2.45,157.77l0 1316.37 -936.74 0z"/>
     <path class="fil1" d="M15346.95 5757.76c-65.78,0 -126.57,-5.72 -182.41,-17.27 -55.93,-11.48 -105.23,-33.66 -147.9,-66.56 -42.77,-32.82 -76.43,-79.66 -101.07,-140.5 -24.66,-60.79 -36.99,-142.13 -36.99,-244.04 0,-101.85 12.33,-183.21 36.99,-244.07 24.64,-60.77 58.3,-107.61 101.07,-140.49 42.67,-32.83 91.97,-55.01 147.9,-66.57 55.84,-11.48 116.63,-17.25 182.41,-17.25 62.41,0 122.42,5.77 179.96,17.25 57.47,11.56 107.63,33.74 150.37,66.57 42.69,32.88 76.43,79.72 101.07,140.49 24.66,60.86 36.99,142.22 36.99,244.07 0,101.91 -12.33,183.25 -36.99,244.04 -24.64,60.84 -58.38,107.68 -101.07,140.5 -42.74,32.9 -92.9,55.08 -150.37,66.56 -57.54,11.55 -117.55,17.27 -179.96,17.27zm-468.37 2711.62l0 0 0 -2415.81 103.53 -44.37c128.2,-55.86 252.23,-95.3 372.24,-118.34 119.95,-22.95 248.99,-34.5 387.03,-34.5l73.96 0 0 2613.02 -936.76 0z"/>
     <path class="fil1" d="M15346.95 5757.76c-65.78,0 -126.57,-5.72 -182.41,-17.27 -55.93,-11.48 -105.23,-33.66 -147.9,-66.56 -42.77,-32.82 -76.43,-79.66 -101.07,-140.5 -24.66,-60.79 -36.99,-142.13 -36.99,-244.04 0,-101.85 12.33,-183.21 36.99,-244.07 24.64,-60.77 58.3,-107.61 101.07,-140.49 42.67,-32.83 91.97,-55.01 147.9,-66.57 55.84,-11.48 116.63,-17.25 182.41,-17.25 62.41,0 122.42,5.77 179.96,17.25 57.47,11.56 107.63,33.74 150.37,66.57 42.69,32.88 76.43,79.72 101.07,140.49 24.66,60.86 36.99,142.22 36.99,244.07 0,101.91 -12.33,183.25 -36.99,244.04 -24.64,60.84 -58.38,107.68 -101.07,140.5 -42.74,32.9 -92.9,55.08 -150.37,66.56 -57.54,11.55 -117.55,17.27 -179.96,17.27zm-468.37 2711.62l0 0 0 -2415.81 103.53 -44.37c128.2,-55.86 252.23,-95.3 372.24,-118.34 119.95,-22.95 248.99,-34.5 387.03,-34.5l73.96 0 0 2613.02 -936.76 0z"/>
     <path class="fil2" d="M18216.33 8262.32c-124.94,69.03 -253.91,124.94 -387.04,167.63 -133.1,42.66 -283.47,64.09 -451.1,64.09 -157.77,0 -295.81,-23.03 -414.14,-69.02 -118.33,-46 -216.93,-121.56 -295.83,-226.8 -78.87,-105.16 -138.88,-244.83 -179.94,-419.07 -41.14,-174.17 -61.63,-387.8 -61.63,-640.94l0 -443.71 -315.54 0 0 -838.14 315.54 0 0 -414.16 103.53 -44.35c128.19,-55.86 252.22,-95.31 372.23,-118.33 119.94,-22.96 248.98,-34.53 387.04,-34.53l73.94 0 0 611.37 700.1 0 0 838.14 -700.1 0 0 463.44c0,85.51 1.62,153.68 4.93,204.6 3.24,51.01 11.49,91.21 24.67,120.8 13.09,29.57 32.04,49.3 56.69,59.16 24.64,9.85 58.31,14.78 101.07,14.78 55.84,0 106,-8.16 150.37,-24.64 44.37,-16.42 106,-42.68 184.88,-78.89l330.33 808.57z"/>
     <path class="fil2" d="M18216.33 8262.32c-124.94,69.03 -253.91,124.94 -387.04,167.63 -133.1,42.66 -283.47,64.09 -451.1,64.09 -157.77,0 -295.81,-23.03 -414.14,-69.02 -118.33,-46 -216.93,-121.56 -295.83,-226.8 -78.87,-105.16 -138.88,-244.83 -179.94,-419.07 -41.14,-174.17 -61.63,-387.8 -61.63,-640.94l0 -443.71 -315.54 0 0 -838.14 315.54 0 0 -414.16 103.53 -44.35c128.19,-55.86 252.22,-95.31 372.23,-118.33 119.94,-22.96 248.98,-34.53 387.04,-34.53l73.94 0 0 611.37 700.1 0 0 838.14 -700.1 0 0 463.44c0,85.51 1.62,153.68 4.93,204.6 3.24,51.01 11.49,91.21 24.67,120.8 13.09,29.57 32.04,49.3 56.69,59.16 24.64,9.85 58.31,14.78 101.07,14.78 55.84,0 106,-8.16 150.37,-24.64 44.37,-16.42 106,-42.68 184.88,-78.89l330.33 808.57z"/>
    </g>
   </g>
   <path class="fil4" d="M17483.19 9450.49c-28.99,0 -471.05,136.58 -577.07,590.27l-146.82 -1.83c60.36,-417.61 437.18,-608.26 437.18,-608.26 -429.03,-51.59 -649.24,-352.36 -649.24,-352.36 810.03,450.04 1357.45,173.1 1575.8,33.47 32.84,-20.99 61.19,-39.11 86.81,-51.93 367.46,-183.72 1321.25,-1208.94 1523.79,-1459.6 210.49,-260.48 1557.8,-818.91 1710.73,-881.73 78.53,-32.33 285.52,-144.17 300.28,-271.99 7.78,-67.57 -41.88,-140.16 -147.67,-215.73 -416.61,-297.51 -922.08,-171.4 -1256.63,-87.95 -29.13,7.28 -56.94,14.22 -83.28,20.53 -263.08,63.08 -568.91,294.58 -751.62,432.91 -121.11,91.65 -161.18,120.9 -198.2,126.19 -24.8,3.59 -49.57,-4.36 -67.77,-21.74 -46.57,-44.46 -41.1,-125.03 -14.97,-397.66 15.1,-157.46 33.89,-353.42 33.89,-539.1 0,-442.58 92.13,-621.68 96.04,-629.1l4.59 -7.46c37.09,-52.55 142.98,-211.22 289.5,-430.85 312.06,-467.74 783.66,-1174.6 1110.25,-1634.48 441.62,-621.88 272.87,-930.26 271.11,-933.32l-4.33 -6.97 -2.02 -6.96c-33.89,-104.1 -85.01,-161.36 -156.26,-175.07 -140.91,-27.09 -334.5,113.63 -420.89,217.3 -31.31,37.58 -75.24,86.8 -130.85,149.11 -202.4,226.76 -579.15,648.88 -1010.8,1265.53 -423.28,604.66 -561.22,724.35 -667.68,733.67 -67.12,5.88 -109.16,-36.3 -131.81,-58.96 -85.56,-85.57 -20.34,-239.72 98.09,-519.58 46.91,-110.87 100.08,-236.53 150.24,-374.45 68.95,-189.6 115.19,-403.29 159.91,-609.94 56.58,-261.47 110.03,-508.44 205.33,-699.04 153.06,-306.09 275.18,-1014.6 286.46,-1081.46 3.48,-327.9 -58.39,-539.83 -178.99,-613.08 -107.78,-65.45 -251.16,-7.06 -327.05,33.6 -192.37,103.06 -344.97,451.23 -426.96,638.29 -26.69,60.87 -47.76,108.96 -64.94,138.42 -47.47,81.35 -256.47,715.57 -385.39,1122.01l-1.87 5.95 -2.93 5.5c-47.42,89.18 -175.96,521.44 -269.82,837.06 -55.04,185.05 -102.56,344.86 -127.3,415.55 -52.53,150.1 -129.71,243.77 -217.28,263.75 -56.87,12.99 -113.63,-5.5 -160.1,-51.96 -25.52,-25.52 -78.61,-78.6 -98.71,-715.46 -9.99,-315.9 -6.66,-662.36 7.56,-788.77 13.37,-118.6 48.48,-325.1 82.43,-524.8 33.19,-195.05 67.49,-396.74 77.08,-492.72 2.7,-26.95 6.63,-57.05 11.22,-91.9 28.01,-213.48 74.9,-570.78 -99.82,-864.61 -55.18,-92.78 -118.05,-140.46 -186.91,-141.73 -118.58,-2.66 -280.43,131.66 -420.9,349.4 -181.3,281.02 -282.56,1031.97 -288.32,1373.44 -4.45,265.43 -29.01,385.64 -63,552.04 -9.67,47.34 -19.67,96.3 -30.4,154.19 -44.04,237.87 -78.11,590.64 -54.9,842.56 10.82,117.45 -4.28,266.93 -41.42,410.1 -63.7,245.49 -130.42,256.62 -155.54,260.8 -101.89,17.18 -212.73,-92.25 -260.53,-207.77 -32.06,-77.52 -188.95,-585.83 -228.98,-785.98 -15.06,-75.27 -55.25,-169.73 -101.79,-279.09 -67.07,-157.6 -143.07,-336.22 -172.78,-526.35 -49.65,-317.69 -254.78,-820.6 -378.47,-927.78 -138.79,-120.28 -258.55,-163.43 -355.87,-128.38 -161.27,58.1 -238.65,316.74 -246.18,361.92 -6.88,52.43 31.14,490.91 135.27,850.57 82.01,283.31 118.44,634.07 145.05,890.18 8.63,83 16.06,154.69 23.34,205.6 23.98,167.77 95.51,376.72 147.76,529.29 9.4,27.45 18.06,52.79 25.59,75.36 49.03,147.11 87.67,271.99 89.3,278.06 0,0 -38.07,29.9 -71.1,59.26 -34.33,30.51 -58.72,75.85 -58.72,75.85 -0.39,-1.45 -41.82,-226.83 -89.47,-369.84 -7.42,-22.26 -15.98,-47.23 -25.24,-74.3 -54.02,-157.73 -127.98,-373.75 -153.77,-554.29 -7.64,-53.53 -15.21,-126.43 -23.99,-210.82 -26.07,-250.99 -61.78,-594.7 -140.39,-866.25 -104.62,-361.42 -152.03,-831.75 -138.79,-911.2 0.62,-3.69 77.69,-375.65 334.91,-468.31 147.5,-53.15 313.01,-1.39 492.03,153.75 162.99,141.24 372.93,682.55 424.12,1010.17 27.09,173.32 99.54,343.61 163.48,493.86 49.5,116.32 92.24,216.78 110.06,305.87 37.79,188.92 191.14,687.69 221.25,760.46 26.46,63.93 95.74,99.6 120.02,81.73 41.17,-68.16 92.6,-282.37 74.4,-479.91 -24.41,-264.96 10.86,-632.93 56.62,-880.07 10.95,-59.13 21.54,-110.96 30.87,-156.68 33.72,-165.09 56.01,-274.17 60.28,-526.92 5.62,-334.59 105.29,-1127.86 310.14,-1445.41 80.29,-124.43 292.1,-412.16 533.05,-412.16 1.83,0 3.66,0.02 5.52,0.05 119.46,2.18 221.14,72.4 302.19,208.71 198.97,334.62 148.21,721.38 117.9,952.45 -4.44,33.74 -8.27,62.86 -10.75,87.71 -10.06,100.67 -43.22,295.64 -78.32,502.07 -33.65,197.82 -68.42,402.38 -81.36,517.15 -29.88,265.53 -7.59,1241.66 54.47,1355.35 16.89,15.78 26.43,13.63 30.12,12.77 23.02,-5.26 73.87,-8.97 118.43,-136.27 23.66,-67.63 70.77,-225.98 125.29,-409.34 125.67,-422.57 226.18,-754.95 277.11,-856.4 40.68,-128.15 326.68,-1025.47 395.88,-1144.12 13.21,-22.64 33.88,-69.79 57.81,-124.38 94.86,-216.42 253.62,-578.63 487.77,-704.08 175.48,-94 339.88,-104.63 462.87,-29.92 167.36,101.65 249.72,349.67 244.83,737.17l-0.92 10.26c-5.26,31.99 -130.85,787.35 -299.94,1125.52 -87.59,175.16 -139.26,413.94 -193.98,666.73 -45.68,211.12 -92.94,429.43 -165.06,627.79 -51.35,141.24 -105.26,268.63 -152.82,381.01 -61.75,145.95 -118.83,307.54 -105.58,351.94 10.55,10.42 17.53,16.21 20.7,17.24 0.88,-0.02 13.94,19.73 117.45,-92.39 99.2,-107.44 239.99,-291.9 430.39,-563.9 436.27,-623.27 816.54,-1049.3 1020.82,-1278.19 54.75,-61.34 97.99,-109.8 127.83,-145.59 106.9,-128.28 342.2,-304.45 552.01,-264.13 83.61,16.08 195.88,74.52 258.62,260.99 31.5,60.27 183.22,421.15 -281.28,1075.22 -325.44,458.26 -796.35,1164.11 -1107.99,1631.2 -143.08,214.46 -247.55,371.05 -288.25,429.16 -10.34,22.97 -78.82,188.97 -78.82,562.2 0,192.24 -19.13,391.81 -34.53,552.18 -7.81,81.63 -16.32,170.27 -18.75,231.23 24.84,-18.16 53.55,-39.9 80.58,-60.37 191.27,-144.78 511.42,-387.13 802.37,-456.88 25.96,-6.23 53.38,-13.07 82.09,-20.23 358.93,-89.58 901.4,-224.92 1369.42,109.41 149.54,106.8 218.2,222.26 204.13,343.19 -26.82,230.19 -347.88,367.86 -384.39,382.79 -406.47,166.99 -1496.59,643.65 -1656.12,841.09 -190.91,236.26 -1159.09,1291.03 -1569.09,1496.03 -19.18,9.58 -44.72,25.9 -74.27,44.81 -132.48,84.7 -378.18,223.26 -713.68,223.26z"/>
   <path class="fil4" d="M17483.19 9450.49c-28.99,0 -471.05,136.58 -577.07,590.27l-146.82 -1.83c60.36,-417.61 437.18,-608.26 437.18,-608.26 -429.03,-51.59 -649.24,-352.36 -649.24,-352.36 810.03,450.04 1357.45,173.1 1575.8,33.47 32.84,-20.99 61.19,-39.11 86.81,-51.93 367.46,-183.72 1321.25,-1208.94 1523.79,-1459.6 210.49,-260.48 1557.8,-818.91 1710.73,-881.73 78.53,-32.33 285.52,-144.17 300.28,-271.99 7.78,-67.57 -41.88,-140.16 -147.67,-215.73 -416.61,-297.51 -922.08,-171.4 -1256.63,-87.95 -29.13,7.28 -56.94,14.22 -83.28,20.53 -263.08,63.08 -568.91,294.58 -751.62,432.91 -121.11,91.65 -161.18,120.9 -198.2,126.19 -24.8,3.59 -49.57,-4.36 -67.77,-21.74 -46.57,-44.46 -41.1,-125.03 -14.97,-397.66 15.1,-157.46 33.89,-353.42 33.89,-539.1 0,-442.58 92.13,-621.68 96.04,-629.1l4.59 -7.46c37.09,-52.55 142.98,-211.22 289.5,-430.85 312.06,-467.74 783.66,-1174.6 1110.25,-1634.48 441.62,-621.88 272.87,-930.26 271.11,-933.32l-4.33 -6.97 -2.02 -6.96c-33.89,-104.1 -85.01,-161.36 -156.26,-175.07 -140.91,-27.09 -334.5,113.63 -420.89,217.3 -31.31,37.58 -75.24,86.8 -130.85,149.11 -202.4,226.76 -579.15,648.88 -1010.8,1265.53 -423.28,604.66 -561.22,724.35 -667.68,733.67 -67.12,5.88 -109.16,-36.3 -131.81,-58.96 -85.56,-85.57 -20.34,-239.72 98.09,-519.58 46.91,-110.87 100.08,-236.53 150.24,-374.45 68.95,-189.6 115.19,-403.29 159.91,-609.94 56.58,-261.47 110.03,-508.44 205.33,-699.04 153.06,-306.09 275.18,-1014.6 286.46,-1081.46 3.48,-327.9 -58.39,-539.83 -178.99,-613.08 -107.78,-65.45 -251.16,-7.06 -327.05,33.6 -192.37,103.06 -344.97,451.23 -426.96,638.29 -26.69,60.87 -47.76,108.96 -64.94,138.42 -47.47,81.35 -256.47,715.57 -385.39,1122.01l-1.87 5.95 -2.93 5.5c-47.42,89.18 -175.96,521.44 -269.82,837.06 -55.04,185.05 -102.56,344.86 -127.3,415.55 -52.53,150.1 -129.71,243.77 -217.28,263.75 -56.87,12.99 -113.63,-5.5 -160.1,-51.96 -25.52,-25.52 -78.61,-78.6 -98.71,-715.46 -9.99,-315.9 -6.66,-662.36 7.56,-788.77 13.37,-118.6 48.48,-325.1 82.43,-524.8 33.19,-195.05 67.49,-396.74 77.08,-492.72 2.7,-26.95 6.63,-57.05 11.22,-91.9 28.01,-213.48 74.9,-570.78 -99.82,-864.61 -55.18,-92.78 -118.05,-140.46 -186.91,-141.73 -118.58,-2.66 -280.43,131.66 -420.9,349.4 -181.3,281.02 -282.56,1031.97 -288.32,1373.44 -4.45,265.43 -29.01,385.64 -63,552.04 -9.67,47.34 -19.67,96.3 -30.4,154.19 -44.04,237.87 -78.11,590.64 -54.9,842.56 10.82,117.45 -4.28,266.93 -41.42,410.1 -63.7,245.49 -130.42,256.62 -155.54,260.8 -101.89,17.18 -212.73,-92.25 -260.53,-207.77 -32.06,-77.52 -188.95,-585.83 -228.98,-785.98 -15.06,-75.27 -55.25,-169.73 -101.79,-279.09 -67.07,-157.6 -143.07,-336.22 -172.78,-526.35 -49.65,-317.69 -254.78,-820.6 -378.47,-927.78 -138.79,-120.28 -258.55,-163.43 -355.87,-128.38 -161.27,58.1 -238.65,316.74 -246.18,361.92 -6.88,52.43 31.14,490.91 135.27,850.57 82.01,283.31 118.44,634.07 145.05,890.18 8.63,83 16.06,154.69 23.34,205.6 23.98,167.77 95.51,376.72 147.76,529.29 9.4,27.45 18.06,52.79 25.59,75.36 49.03,147.11 87.67,271.99 89.3,278.06 0,0 -38.07,29.9 -71.1,59.26 -34.33,30.51 -58.72,75.85 -58.72,75.85 -0.39,-1.45 -41.82,-226.83 -89.47,-369.84 -7.42,-22.26 -15.98,-47.23 -25.24,-74.3 -54.02,-157.73 -127.98,-373.75 -153.77,-554.29 -7.64,-53.53 -15.21,-126.43 -23.99,-210.82 -26.07,-250.99 -61.78,-594.7 -140.39,-866.25 -104.62,-361.42 -152.03,-831.75 -138.79,-911.2 0.62,-3.69 77.69,-375.65 334.91,-468.31 147.5,-53.15 313.01,-1.39 492.03,153.75 162.99,141.24 372.93,682.55 424.12,1010.17 27.09,173.32 99.54,343.61 163.48,493.86 49.5,116.32 92.24,216.78 110.06,305.87 37.79,188.92 191.14,687.69 221.25,760.46 26.46,63.93 95.74,99.6 120.02,81.73 41.17,-68.16 92.6,-282.37 74.4,-479.91 -24.41,-264.96 10.86,-632.93 56.62,-880.07 10.95,-59.13 21.54,-110.96 30.87,-156.68 33.72,-165.09 56.01,-274.17 60.28,-526.92 5.62,-334.59 105.29,-1127.86 310.14,-1445.41 80.29,-124.43 292.1,-412.16 533.05,-412.16 1.83,0 3.66,0.02 5.52,0.05 119.46,2.18 221.14,72.4 302.19,208.71 198.97,334.62 148.21,721.38 117.9,952.45 -4.44,33.74 -8.27,62.86 -10.75,87.71 -10.06,100.67 -43.22,295.64 -78.32,502.07 -33.65,197.82 -68.42,402.38 -81.36,517.15 -29.88,265.53 -7.59,1241.66 54.47,1355.35 16.89,15.78 26.43,13.63 30.12,12.77 23.02,-5.26 73.87,-8.97 118.43,-136.27 23.66,-67.63 70.77,-225.98 125.29,-409.34 125.67,-422.57 226.18,-754.95 277.11,-856.4 40.68,-128.15 326.68,-1025.47 395.88,-1144.12 13.21,-22.64 33.88,-69.79 57.81,-124.38 94.86,-216.42 253.62,-578.63 487.77,-704.08 175.48,-94 339.88,-104.63 462.87,-29.92 167.36,101.65 249.72,349.67 244.83,737.17l-0.92 10.26c-5.26,31.99 -130.85,787.35 -299.94,1125.52 -87.59,175.16 -139.26,413.94 -193.98,666.73 -45.68,211.12 -92.94,429.43 -165.06,627.79 -51.35,141.24 -105.26,268.63 -152.82,381.01 -61.75,145.95 -118.83,307.54 -105.58,351.94 10.55,10.42 17.53,16.21 20.7,17.24 0.88,-0.02 13.94,19.73 117.45,-92.39 99.2,-107.44 239.99,-291.9 430.39,-563.9 436.27,-623.27 816.54,-1049.3 1020.82,-1278.19 54.75,-61.34 97.99,-109.8 127.83,-145.59 106.9,-128.28 342.2,-304.45 552.01,-264.13 83.61,16.08 195.88,74.52 258.62,260.99 31.5,60.27 183.22,421.15 -281.28,1075.22 -325.44,458.26 -796.35,1164.11 -1107.99,1631.2 -143.08,214.46 -247.55,371.05 -288.25,429.16 -10.34,22.97 -78.82,188.97 -78.82,562.2 0,192.24 -19.13,391.81 -34.53,552.18 -7.81,81.63 -16.32,170.27 -18.75,231.23 24.84,-18.16 53.55,-39.9 80.58,-60.37 191.27,-144.78 511.42,-387.13 802.37,-456.88 25.96,-6.23 53.38,-13.07 82.09,-20.23 358.93,-89.58 901.4,-224.92 1369.42,109.41 149.54,106.8 218.2,222.26 204.13,343.19 -26.82,230.19 -347.88,367.86 -384.39,382.79 -406.47,166.99 -1496.59,643.65 -1656.12,841.09 -190.91,236.26 -1159.09,1291.03 -1569.09,1496.03 -19.18,9.58 -44.72,25.9 -74.27,44.81 -132.48,84.7 -378.18,223.26 -713.68,223.26z"/>
  </g>
  <path class="fil4" d="M18567.83 5027.35c0,-576.78 -858.2,-576.78 -858.2,0 0,579.32 858.2,576.78 858.2,0zm-347.34 53.24c59.58,-11.41 97.61,-62.11 97.61,-124.23 0,-86.2 -64.65,-135.63 -147.05,-135.63l-169.86 0 0 414.52 64.65 0 0 -145.78 90 0 107.75 145.78 67.18 0 0 -10.14 -110.28 -144.52zm-154.65 -204.09l100.14 0c50.71,0 87.47,32.96 87.47,79.86 0,49.44 -36.76,79.87 -87.47,79.87l-100.14 0 0 -159.73zm-280.15 150.85c0,-489.31 707.34,-489.31 707.34,0 0,488.05 -707.34,488.05 -707.34,0z"/>
  <path class="fil4" d="M948.16 9465.12c2.92,-73.98 -47.69,-91.5 -121.67,-78.84l0.97 56.46c62.3,-7.79 55.49,40.88 55.49,101.23l0 553.86 75.92 0 0 -284.23c167.43,112.91 372.81,14.6 372.81,-194.68 0,-134.33 -74.95,-244.32 -212.2,-244.32 -67.16,0 -127.51,19.47 -171.32,90.52zm8.76 134.33c2.92,-80.79 58.41,-155.74 147.96,-155.74 105.13,0 148.93,81.76 148.93,175.21 0,172.29 -169.37,224.86 -296.89,125.57l0 -145.04zm957.83 21.42c0,-326.09 -494.49,-326.09 -494.49,0 0,326.09 494.49,324.14 494.49,0zm-417.59 0c0,-238.49 341.66,-238.49 341.66,0 0,239.45 -341.66,239.45 -341.66,0zm512.01 -145.04c38.94,-22.39 104.15,-35.04 148.93,-35.04 54.51,0 117.78,9.73 117.78,70.08 0,64.25 -67.16,70.09 -121.67,71.06 -20.44,0 -39.91,-0.97 -58.41,-0.97l0 60.35c19.47,0 40.89,0 62.3,0 64.25,0 146.01,8.76 146.01,78.84 0,61.33 -67.16,80.8 -132.38,81.77 -63.27,0 -143.09,-23.36 -179.11,-54.51l-3.89 67.16c45.75,31.15 120.7,52.57 193.71,52.57 98.31,0 197.6,-40.89 197.6,-144.07 0,-63.27 -40.89,-104.15 -103.18,-117.78 45.75,-9.73 74.95,-54.51 74.95,-101.23 0,-96.37 -93.45,-125.57 -181.06,-125.57 -58.4,-0.97 -123.62,13.63 -165.47,36.99l3.89 60.35zm727.13 263.79l161.58 -191.76 0 306.62c24.34,0 48.67,0 73.01,0 0,-145.03 0,-334.85 0,-467.23l-24.34 0 -213.17 256.98 -212.2 -256.98 -25.31 0c0,132.38 0,322.2 0,467.23 25.31,0 49.64,0 73.98,0l0 -306.62 158.66 191.76 7.79 0zm697.93 32.12c0,85.66 36.99,100.26 114.86,87.61l-0.97 -49.64c-57.43,7.78 -54.51,-22.39 -54.51,-73.98l0 -195.65c2.92,-122.65 -99.29,-163.54 -205.39,-163.54 -62.3,0 -124.6,13.63 -170.35,36.99l12.66 58.41c39.91,-23.36 92.47,-34.07 146.01,-34.07 64.24,0 147.96,21.41 147.96,100.26l0 57.43c-46.73,-26.28 -108.05,-38.94 -161.59,-38.94 -97.34,0 -184.94,55.49 -182.02,162.56 2.92,94.42 81.76,145.04 168.39,145.04 71.06,0 150.88,-27.26 184.95,-92.48zm-10.71 -73.97c-15.57,70.08 -99.28,101.23 -160.61,101.23 -52.56,0 -104.15,-23.36 -107.07,-82.74 -2.92,-67.16 57.43,-101.23 119.73,-101.23 47.69,0 105.12,13.62 147.95,37.96l0 44.78zm395.2 -314.41l-221.93 464.31 0 8.76 81.76 0 76.9 -173.27 77.87 -183.97 77.88 181.05 79.82 176.19 82.73 0 0 -8.76 -222.9 -464.31 -32.13 0zm534.4 473.07c102.2,0 204.41,-39.91 204.41,-158.66 0,-118.76 -101.23,-156.72 -204.41,-156.72l-109.02 0 0 -153.8 -73.98 0c0,156.72 0,312.46 0,469.18l183 0zm-0.98 -255.03c67.17,0 131.41,25.31 131.41,96.37 0,72.03 -64.24,96.36 -131.41,96.36l-108.04 0 0 -192.73 108.04 0zm773.86 19.47c0,-326.09 -494.49,-326.09 -494.49,0 0,326.09 494.49,324.14 494.49,0zm-417.59 0c0,-238.49 341.66,-238.49 341.66,0 0,239.45 -341.66,239.45 -341.66,0zm735.89 -479.89c-110.97,0 -202.47,66.19 -202.47,183l0 512.98c63.27,23.36 136.28,35.04 201.5,35.04 135.3,-1.94 248.21,-62.29 247.24,-218.04 -0.97,-98.31 -43.8,-171.32 -142.12,-194.68 58.41,-23.36 97.34,-73.98 98.32,-140.17 0,-116.8 -90.53,-178.13 -202.47,-178.13zm-127.52 381.57c44.78,-14.6 90.53,-23.36 131.41,-23.36 106.1,-0.97 167.43,48.67 168.4,155.75 0,105.12 -74.95,151.85 -172.29,152.82 -40.88,0 -85.66,-7.79 -127.52,-22.39l0 -262.82zm0 -199.54c0,-75.93 63.27,-114.86 129.47,-114.86 68.13,0 125.56,40.88 125.56,112.91 0,128.49 -156.71,105.13 -255.03,137.25l0 -135.3zm563.6 262.81l0 -428.29 -76.9 0 0 698.9 76.9 0 0 -208.31 61.33 0c19.47,0 39.91,-0.97 57.43,-4.86l142.11 213.17 81.77 0 0 -8.76 -156.72 -227.78c102.21,-38.93 135.31,-128.48 133.36,-233.61l-72.03 0c0,127.51 -58.41,199.54 -184.95,199.54l-62.3 0zm758.28 185.92c0,85.66 36.99,100.26 114.86,87.61l-0.97 -49.64c-57.43,7.78 -54.51,-22.39 -54.51,-73.98l0 -195.65c2.92,-122.65 -99.29,-163.54 -205.39,-163.54 -62.3,0 -124.6,13.63 -170.35,36.99l12.66 58.41c39.91,-23.36 92.47,-34.07 146.01,-34.07 64.24,0 147.96,21.41 147.96,100.26l0 57.43c-46.73,-26.28 -108.05,-38.94 -161.59,-38.94 -97.34,0 -184.94,55.49 -182.02,162.56 2.92,94.42 81.76,145.04 168.39,145.04 71.06,0 150.88,-27.26 184.95,-92.48zm-10.71 -73.97c-15.57,70.08 -99.28,101.23 -160.61,101.23 -52.56,0 -104.15,-23.36 -107.07,-82.74 -2.92,-67.16 57.43,-101.23 119.73,-101.23 47.69,0 105.12,13.62 147.95,37.96l0 44.78zm549.97 -111.95l0 -428.29 -76.9 0 0 698.9 76.9 0 0 -208.31 61.33 0c19.47,0 39.91,-0.97 57.43,-4.86l142.11 213.17 81.77 0 0 -8.76 -156.72 -227.78c102.21,-38.93 135.31,-128.48 133.36,-233.61l-72.03 0c0,127.51 -58.41,199.54 -184.95,199.54l-62.3 0zm898.45 35.05c0,-326.09 -494.49,-326.09 -494.49,0 0,326.09 494.49,324.14 494.49,0zm-417.59 0c0,-238.49 341.66,-238.49 341.66,0 0,239.45 -341.66,239.45 -341.66,0zm688.19 -237.51l-221.93 464.31 0 8.76 81.76 0 76.9 -173.27 77.87 -183.97 77.88 181.05 79.82 176.19 82.73 0 0 -8.76 -222.9 -464.31 -32.13 0zm534.4 473.07c102.2,0 204.41,-39.91 204.41,-158.66 0,-118.76 -101.23,-156.72 -204.41,-156.72l-109.02 0 0 -153.8 -73.98 0c0,156.72 0,312.46 0,469.18l183 0zm-0.98 -255.03c67.17,0 131.41,25.31 131.41,96.37 0,72.03 -64.24,96.36 -131.41,96.36l-108.04 0 0 -192.73 108.04 0zm773.86 19.47c0,-326.09 -494.49,-326.09 -494.49,0 0,326.09 494.49,324.14 494.49,0zm-417.59 0c0,-238.49 341.66,-238.49 341.66,0 0,239.45 -341.66,239.45 -341.66,0zm614.21 -155.75c2.92,-73.98 -47.69,-91.5 -121.67,-78.84l0.97 56.46c62.3,-7.79 55.49,40.88 55.49,101.23l0 553.86 75.92 0 0 -284.23c167.43,112.91 372.81,14.6 372.81,-194.68 0,-134.33 -74.95,-244.32 -212.2,-244.32 -67.16,0 -127.51,19.47 -171.32,90.52zm8.76 134.33c2.92,-80.79 58.41,-155.74 147.96,-155.74 105.13,0 148.93,81.76 148.93,175.21 0,172.29 -169.37,224.86 -296.89,125.57l0 -145.04zm957.83 21.42c0,-326.09 -494.49,-326.09 -494.49,0 0,326.09 494.49,324.14 494.49,0zm-417.59 0c0,-238.49 341.66,-238.49 341.66,0 0,239.45 -341.66,239.45 -341.66,0zm735.89 -479.89c-110.97,0 -202.47,66.19 -202.47,183l0 512.98c63.27,23.36 136.28,35.04 201.5,35.04 135.3,-1.94 248.21,-62.29 247.24,-218.04 -0.97,-98.31 -43.8,-171.32 -142.12,-194.68 58.41,-23.36 97.34,-73.98 98.32,-140.17 0,-116.8 -90.53,-178.13 -202.47,-178.13zm-127.52 381.57c44.78,-14.6 90.53,-23.36 131.41,-23.36 106.1,-0.97 167.43,48.67 168.4,155.75 0,105.12 -74.95,151.85 -172.29,152.82 -40.88,0 -85.66,-7.79 -127.52,-22.39l0 -262.82zm0 -199.54c0,-75.93 63.27,-114.86 129.47,-114.86 68.13,0 125.56,40.88 125.56,112.91 0,128.49 -156.71,105.13 -255.03,137.25l0 -135.3zm571.38 337.77l0 -172.3c0,-97.34 -48.67,-117.78 -134.33,-101.23l0 53.54c50.62,-6.82 56.46,9.73 57.44,49.64l0 170.35c0,115.83 50.61,203.44 176.18,203.44 71.06,0 134.33,-15.58 170.35,-80.79 -4.87,81.76 50.61,86.63 123.62,73.97l-0.98 -52.56c-48.67,4.87 -55.48,-4.87 -55.48,-73.98l0 -343.61 -75.92 0 0 272.55c0,87.61 -57.44,142.12 -139.2,142.12 -77.87,0 -122.65,-55.48 -121.68,-141.14zm739.79 78.84l161.58 -191.76 0 306.62c24.34,0 48.67,0 73.01,0 0,-145.03 0,-334.85 0,-467.23l-24.34 0 -213.17 256.98 -212.2 -256.98 -25.31 0c0,132.38 0,322.2 0,467.23 25.31,0 49.64,0 73.98,0l0 -306.62 158.66 191.76 7.79 0zm590.86 -305.65c62.29,-7.78 58.4,15.58 58.4,86.64l0 335.82 76.9 0 0 -275.47c0,-86.63 60.35,-141.15 138.22,-141.15 75.93,0 132.38,54.52 132.38,137.25l0 178.14c0,97.34 49.65,117.78 135.31,101.23l0 -53.54c-50.62,6.82 -57.43,-9.73 -58.41,-49.64l0 -176.19c0,-113.88 -65.22,-199.54 -188.84,-199.54 -70.08,0 -134.33,23.36 -164.5,88.58 0,-73.01 -53.54,-100.26 -130.44,-81.77l0.98 49.64zm625.89 -201.49c0,65.22 96.37,65.22 96.37,0 0,-64.24 -96.37,-64.24 -96.37,0zm85.66 158.66l-75.92 0 0 465.29 75.92 0 0 -465.29zm583.07 139.2c-29.2,-102.21 -121.68,-153.8 -217.07,-154.77 -122.65,-0.97 -249.19,80.79 -249.19,244.32 0,161.59 124.59,244.33 247.24,244.33 98.32,0 195.66,-54.51 223.89,-165.48l-73.98 0c-25.31,66.19 -86.64,98.31 -148.93,98.31 -84.69,0 -171.32,-61.32 -171.32,-177.16 0,-116.8 89.55,-176.18 175.21,-176.18 59.38,0 115.83,28.23 141.14,86.63l73.01 0zm188.83 55.48l0 -428.29 -76.9 0 0 698.9 76.9 0 0 -208.31 61.33 0c19.47,0 39.91,-0.97 57.43,-4.86l142.11 213.17 81.77 0 0 -8.76 -156.72 -227.78c102.21,-38.93 135.31,-128.48 133.36,-233.61l-72.03 0c0,127.51 -58.41,199.54 -184.95,199.54l-62.3 0zm898.45 35.05c0,-326.09 -494.49,-326.09 -494.49,0 0,326.09 494.49,324.14 494.49,0zm-417.59 0c0,-238.49 341.66,-238.49 341.66,0 0,239.45 -341.66,239.45 -341.66,0zm775.8 118.75l161.58 -191.76 0 306.62c24.34,0 48.67,0 73.01,0 0,-145.03 0,-334.85 0,-467.23l-24.34 0 -213.17 256.98 -212.2 -256.98 -25.31 0c0,132.38 0,322.2 0,467.23 25.31,0 49.64,0 73.98,0l0 -306.62 158.66 191.76 7.79 0z"/>
 </g>
</svg>
