<svg width="25" height="25" viewBox="0 0 25 25" fill="none" xmlns="http://www.w3.org/2000/svg">
<path d="M24.3865 3.57578C25.2045 2.75781 25.2045 1.43157 24.3865 0.613545C23.5686 -0.20448 22.2423 -0.20452 21.4243 0.613454L12.499 9.53829L3.57568 0.6155C2.75766 -0.202474 1.43142 -0.202434 0.613452 0.61559C-0.20452 1.43361 -0.204478 2.75985 0.613541 3.57783L9.53666 12.5004L0.614425 21.4222C-0.203596 22.2401 -0.203636 23.5664 0.614335 24.3844C1.43231 25.2024 2.75854 25.2025 3.57656 24.3845L12.499 15.4626L21.4234 24.3865C22.2415 25.2045 23.5677 25.2045 24.3857 24.3865C25.2036 23.5684 25.2036 22.2422 24.3856 21.4242L15.4613 12.5004L24.3865 3.57578Z" fill="#3FB7FF"/>
</svg>
